<?xml version="1.0" encoding="UTF-8" standalone="no"?>
<svg
   xmlns:dc="http://purl.org/dc/elements/1.1/"
   xmlns:cc="http://creativecommons.org/ns#"
   xmlns:rdf="http://www.w3.org/1999/02/22-rdf-syntax-ns#"
   xmlns:svg="http://www.w3.org/2000/svg"
   xmlns="http://www.w3.org/2000/svg"
   viewBox="0 0 381.33334 66.473335"
   height="66.473335"
   width="381.33334"
   xml:space="preserve"
   id="svg2"
   version="1.1"><metadata
     id="metadata8"><rdf:RDF><cc:Work
         rdf:about=""><dc:format>image/svg+xml</dc:format><dc:type
           rdf:resource="http://purl.org/dc/dcmitype/StillImage" /></cc:Work></rdf:RDF></metadata><defs
     id="defs6"><clipPath
       id="clipPath18"
       clipPathUnits="userSpaceOnUse"><path
         id="path16"
         d="M 0,49.855 H 286 V 0 H 0 Z" /></clipPath></defs><g
     transform="matrix(1.3333333,0,0,-1.3333333,0,66.473333)"
     id="g10"><g
       id="g12"><g
         clip-path="url(#clipPath18)"
         id="g14"><g
           transform="translate(156.98,19.13)"
           id="g20"><path
             id="path22"
             style="fill:#e01e26;fill-opacity:1;fill-rule:nonzero;stroke:none"
             d="m 0,0 h 10.265 c 0.659,0.001 1.194,0.535 1.193,1.195 0,0.129 -0.021,0.257 -0.062,0.379 L 7.349,13.622 C 7.054,14.489 6.707,15.507 6.308,16.677 L 6.296,16.713 C 6.086,17.338 5.41,17.675 4.784,17.465 4.424,17.345 4.143,17.06 4.027,16.698 L 4.004,16.627 C 3.617,15.444 3.253,14.419 2.912,13.554 L -1.131,1.576 C -1.343,0.951 -1.008,0.274 -0.383,0.062 -0.26,0.02 -0.13,-0.001 0,-0.001 Z m 29.663,-17.391 c 0.238,-0.615 -0.068,-1.306 -0.683,-1.544 -0.137,-0.054 -0.283,-0.081 -0.43,-0.081 h -7.2 c -0.878,-0.036 -1.746,0.209 -2.475,0.7 -0.629,0.439 -1.101,1.066 -1.349,1.792 l -2.661,7.861 c -0.164,0.484 -0.619,0.811 -1.13,0.811 h -17.2 c -0.512,0 -0.967,-0.326 -1.131,-0.811 l -2.661,-7.861 c -0.609,-1.532 -2.106,-2.526 -3.755,-2.492 h -7.271 c -0.659,0 -1.194,0.535 -1.193,1.194 0,0.148 0.027,0.294 0.08,0.431 l 18.331,47.354 c 0.178,0.46 0.62,0.763 1.113,0.763 h 10.176 c 0.493,0 0.935,-0.303 1.113,-0.763 z" /></g><g
           transform="translate(219.641,32.363)"
           id="g24"><path
             id="path26"
             style="fill:#e01e26;fill-opacity:1;fill-rule:nonzero;stroke:none"
             d="m 0,0 c 0.141,2.121 -0.706,4.188 -2.295,5.6 -1.796,1.361 -4.018,2.04 -6.268,1.913 h -6.906 c -0.688,0 -1.246,-0.558 -1.246,-1.246 V -6.41 c 0,-0.688 0.558,-1.246 1.246,-1.246 h 7.111 c 2.263,-0.141 4.486,0.639 6.165,2.162 1.445,1.4 2.239,3.34 2.192,5.352 z m 9.18,-7.513 c -0.955,-2.107 -2.371,-3.973 -4.145,-5.458 -1.816,-1.498 -3.912,-2.62 -6.165,-3.3 -2.453,-0.748 -5.005,-1.119 -7.57,-1.1 h -6.769 c -0.688,0 -1.246,-0.558 -1.246,-1.246 v -12.392 c 0,-0.688 -0.558,-1.246 -1.246,-1.246 h -8.057 c -0.688,0 -1.246,0.558 -1.246,1.246 V 16.12 c 0,0.688 0.558,1.246 1.246,1.246 h 18.346 c 2.622,0.042 5.23,-0.378 7.706,-1.24 2.142,-0.755 4.102,-1.95 5.754,-3.509 C 7.373,11.091 8.611,9.241 9.419,7.195 10.286,4.971 10.717,2.6 10.687,0.213 V 0.071 C 10.743,-2.537 10.228,-5.125 9.18,-7.513" /></g><g
           transform="translate(34.829,8.532)"
           id="g28"><path
             id="path30"
             style="fill:#1d2355;fill-opacity:1;fill-rule:nonzero;stroke:none"
             d="m 0,0 c -0.831,-1.808 -2.065,-3.401 -3.607,-4.658 -1.638,-1.306 -3.514,-2.283 -5.523,-2.877 -1.853,-0.621 -3.789,-0.956 -5.743,-0.993 -3.667,0.001 -7.307,0.637 -10.757,1.88 -3.195,1.144 -6.158,2.854 -8.747,5.048 -0.488,0.406 -0.595,1.111 -0.251,1.644 l 3.532,5.423 c 0.374,0.575 1.144,0.738 1.72,0.364 0.023,-0.015 0.045,-0.031 0.067,-0.047 1.769,-1.347 3.681,-2.497 5.7,-3.428 2.38,-1.066 4.963,-1.603 7.57,-1.575 1.78,-0.102 3.552,0.315 5.1,1.2 1.157,0.702 1.85,1.969 1.816,3.322 V 5.44 c 0.012,0.626 -0.117,1.246 -0.378,1.815 -0.338,0.614 -0.837,1.123 -1.444,1.473 -0.932,0.561 -1.922,1.021 -2.953,1.37 -1.259,0.457 -2.896,0.936 -4.911,1.439 -2.235,0.535 -4.437,1.198 -6.595,1.986 -1.8,0.638 -3.491,1.551 -5.013,2.706 -1.367,1.064 -2.462,2.437 -3.194,4.007 -0.812,1.879 -1.199,3.913 -1.134,5.959 v 0.137 c -0.032,2.041 0.387,4.064 1.225,5.926 0.808,1.746 1.98,3.299 3.437,4.555 1.55,1.321 3.345,2.322 5.283,2.946 2.186,0.707 4.473,1.054 6.77,1.028 3.298,0.036 6.577,-0.497 9.693,-1.576 3.196,-1.343 6.214,-3.076 8.985,-5.158 0.542,-0.399 0.669,-1.157 0.286,-1.711 l -4.108,-5.956 c -0.386,-0.559 -1.148,-0.706 -1.714,-0.331 -2.263,1.56 -4.641,2.946 -7.113,4.148 -1.952,0.823 -4.047,1.254 -6.165,1.267 -1.631,0.117 -3.256,-0.304 -4.624,-1.2 -0.968,-0.684 -1.543,-1.795 -1.541,-2.98 v -0.137 c -0.017,-0.7 0.136,-1.393 0.446,-2.021 0.383,-0.655 0.943,-1.189 1.615,-1.541 1.012,-0.553 2.083,-0.99 3.194,-1.3 1.351,-0.411 3.057,-0.891 5.118,-1.439 2.211,-0.568 4.379,-1.289 6.49,-2.158 1.742,-0.705 3.364,-1.675 4.808,-2.877 1.27,-1.073 2.28,-2.419 2.953,-3.939 0.705,-1.715 1.046,-3.558 1,-5.412 V 6.329 C 1.333,4.147 0.892,1.984 0,-0.008" /></g><g
           transform="translate(66.3761,14.622)"
           id="g32"><path
             id="path34"
             style="fill:#1d2355;fill-opacity:1;fill-rule:nonzero;stroke:none"
             d="m 0,0 c 0.001,0.531 -0.335,1.004 -0.836,1.18 -0.799,0.278 -1.616,0.503 -2.445,0.673 -1.274,0.258 -2.571,0.384 -3.871,0.377 -1.977,0.105 -3.943,-0.345 -5.677,-1.3 -1.328,-0.78 -2.121,-2.227 -2.064,-3.767 v -0.137 c -0.05,-1.318 0.595,-2.567 1.7,-3.288 1.322,-0.83 2.865,-1.236 4.424,-1.164 2.263,-0.114 4.501,0.511 6.377,1.781 1.53,1.053 2.431,2.801 2.4,4.658 z m -0.22,-12.691 v 0.013 c 0.001,0.69 -0.557,1.25 -1.247,1.251 -0.272,0 -0.536,-0.088 -0.753,-0.251 -0.921,-0.658 -1.907,-1.219 -2.944,-1.672 -2.221,-0.902 -4.604,-1.334 -7,-1.268 -1.782,-0.012 -3.557,0.231 -5.271,0.72 -1.563,0.437 -3.027,1.169 -4.314,2.157 -2.591,1.986 -4.072,5.095 -3.981,8.358 v 0.137 c -0.047,1.807 0.359,3.596 1.18,5.206 0.783,1.458 1.909,2.704 3.281,3.631 1.528,1.014 3.227,1.745 5.014,2.158 2.113,0.499 4.279,0.74 6.451,0.719 1.766,0.02 3.53,-0.118 5.272,-0.411 1.484,-0.272 2.95,-0.64 4.387,-1.1 v 0.616 c 0.122,1.912 -0.671,3.768 -2.138,5 -1.426,1.141 -3.54,1.712 -6.341,1.713 -1.919,0.069 -3.839,-0.104 -5.714,-0.514 -3.009,-0.8 -5.61,-1.747 -7.457,-2.418 -0.646,-0.235 -1.361,0.098 -1.596,0.745 -0.001,0.004 -0.003,0.008 -0.004,0.012 l -1.988,5.639 c -0.222,0.63 0.091,1.322 0.711,1.571 2.957,1.245 6.005,2.264 9.117,3.047 2.812,0.59 5.68,0.866 8.553,0.822 6.143,0 10.616,-1.393 13.419,-4.178 2.803,-2.785 4.203,-6.667 4.2,-11.645 v -20.058 c 0,-0.688 -0.558,-1.246 -1.246,-1.246 H 1.025 c -0.688,0 -1.246,0.558 -1.246,1.246" /></g><g
           transform="translate(111.118,2.745)"
           id="g36"><path
             id="path38"
             style="fill:#1d2355;fill-opacity:1;fill-rule:nonzero;stroke:none"
             d="m 0,0 c -2.992,-1.333 -6.251,-1.96 -9.525,-1.832 -2.791,-0.025 -5.562,0.472 -8.17,1.466 -2.392,0.9 -4.592,2.245 -6.484,3.964 -1.796,1.649 -3.242,3.643 -4.25,5.863 -1.027,2.247 -1.552,4.691 -1.539,7.162 v 0.133 c -0.011,2.481 0.514,4.935 1.539,7.195 1.007,2.24 2.452,4.256 4.25,5.929 1.885,1.737 4.086,3.095 6.484,4 2.657,1.003 5.477,1.5 8.317,1.466 3.154,0.101 6.296,-0.444 9.232,-1.6 C 1.853,32.879 3.703,31.703 5.335,30.26 5.847,29.801 5.89,29.013 5.431,28.5 5.412,28.479 5.392,28.459 5.372,28.439 l -5.053,-4.94 c -0.461,-0.449 -1.189,-0.472 -1.678,-0.054 -0.945,0.811 -1.976,1.517 -3.073,2.106 -1.561,0.758 -3.284,1.124 -5.019,1.066 -1.322,0.019 -2.633,-0.242 -3.847,-0.766 -2.285,-1.004 -4.077,-2.875 -4.982,-5.2 -0.47,-1.199 -0.707,-2.477 -0.7,-3.765 v -0.133 c -0.009,-1.32 0.228,-2.631 0.7,-3.864 0.447,-1.172 1.133,-2.239 2.015,-3.131 0.9,-0.903 1.971,-1.617 3.151,-2.1 1.302,-0.526 2.696,-0.787 4.1,-0.766 1.682,-0.038 3.35,0.315 4.873,1.032 1.176,0.59 2.291,1.296 3.327,2.107 0.479,0.37 1.154,0.342 1.6,-0.067 L 5.534,5.599 C 6.042,5.133 6.076,4.343 5.61,3.834 5.583,3.806 5.556,3.778 5.527,3.752 3.861,2.257 2.001,0.994 -0.003,-0.003" /></g><g
           transform="translate(122.457,1.933)"
           id="g40"><path
             id="path42"
             style="fill:#1d2355;fill-opacity:1;fill-rule:nonzero;stroke:none"
             d="m 0,0 v 34.224 c 0,0.688 0.558,1.246 1.246,1.246 h 7.053 c 0.688,10e-4 1.245,-0.556 1.246,-1.244 V 34.224 0 c 0,-0.688 -0.558,-1.246 -1.246,-1.246 H 1.246 C 0.558,-1.246 0,-0.688 0,0" /></g><g
           transform="translate(262.7279,32.363)"
           id="g44"><path
             id="path46"
             style="fill:#e01e26;fill-opacity:1;fill-rule:nonzero;stroke:none"
             d="m 0,0 c 0.141,2.121 -0.706,4.188 -2.295,5.6 -1.796,1.361 -4.018,2.04 -6.268,1.913 h -6.91 c -0.688,0 -1.246,-0.558 -1.246,-1.246 V -6.41 c 0,-0.688 0.558,-1.246 1.246,-1.246 h 7.111 c 2.263,-0.141 4.487,0.639 6.166,2.162 1.445,1.4 2.239,3.34 2.192,5.352 z m 9.177,-7.513 c -0.955,-2.107 -2.371,-3.973 -4.145,-5.458 -1.816,-1.498 -3.912,-2.619 -6.165,-3.3 -2.453,-0.748 -5.005,-1.119 -7.57,-1.1 h -6.77 c -0.688,0 -1.246,-0.558 -1.246,-1.246 v -12.392 c 0,-0.688 -0.558,-1.246 -1.246,-1.246 h -8.057 c -0.688,0 -1.246,0.558 -1.246,1.246 V 16.12 c 0,0.688 0.558,1.246 1.246,1.246 h 18.349 c 2.622,0.042 5.231,-0.378 7.707,-1.24 2.142,-0.755 4.102,-1.95 5.754,-3.509 C 7.373,11.091 8.611,9.242 9.419,7.195 10.287,4.971 10.717,2.6 10.687,0.213 V 0.071 C 10.743,-2.537 10.228,-5.125 9.18,-7.513" /></g><g
           transform="translate(281.6761,41.928)"
           id="g48"><path
             id="path50"
             style="fill:#1d2355;fill-opacity:1;fill-rule:nonzero;stroke:none"
             d="M 0,0 C -1.901,0.003 -3.44,1.547 -3.437,3.449 -3.434,5.35 -1.89,6.889 0.012,6.886 1.913,6.883 3.452,5.339 3.449,3.437 3.445,1.536 1.901,-0.002 0,0 M 0.007,7.763 C -2.379,7.765 -4.314,5.832 -4.316,3.446 -4.318,1.06 -2.385,-0.875 0.001,-0.877 2.387,-0.879 4.322,1.054 4.324,3.44 4.326,5.825 2.394,7.761 0.009,7.763 Z" /></g><g
           transform="translate(282.1058,46.105)"
           id="g52"><path
             id="path54"
             style="fill:#1d2355;fill-opacity:1;fill-rule:nonzero;stroke:none"
             d="m 0,0 c -0.041,-0.189 -0.196,-0.332 -0.388,-0.356 -0.091,-0.019 -0.183,-0.028 -0.276,-0.027 h -0.454 c -0.032,0 -0.037,0.009 -0.036,0.038 v 0.544 0.54 c 0,0.037 0.01,0.044 0.045,0.044 0.194,0 0.388,0.005 0.582,-0.008 0.079,-0.005 0.156,-0.019 0.231,-0.042 0.155,-0.044 0.271,-0.171 0.3,-0.329 0.031,-0.132 0.031,-0.268 0,-0.4 M 1.74,-2.855 c -0.1,0.209 -0.206,0.419 -0.311,0.628 -0.146,0.287 -0.277,0.58 -0.437,0.86 -0.093,0.176 -0.224,0.329 -0.383,0.449 -0.087,0.062 -0.185,0.108 -0.289,0.136 0.06,0.023 0.118,0.042 0.174,0.067 0.289,0.109 0.515,0.341 0.617,0.632 C 1.177,0.123 1.198,0.34 1.173,0.555 1.158,0.962 0.899,1.32 0.517,1.461 0.241,1.568 -0.052,1.622 -0.348,1.622 c -0.646,0.012 -1.293,0 -1.94,0.006 -0.029,0 -0.035,-0.009 -0.035,-0.036 v -4.45 c 0,-0.031 0.009,-0.037 0.038,-0.037 h 1.092 c 0.03,0 0.037,0.008 0.037,0.037 v 0.445 1.187 c 0,0.034 0.009,0.042 0.042,0.041 h 0.347 c 0.219,0.002 0.424,-0.102 0.552,-0.279 0.059,-0.08 0.112,-0.166 0.157,-0.255 0.187,-0.378 0.373,-0.756 0.558,-1.134 0.01,-0.028 0.039,-0.046 0.068,-0.041 h 1.143 c 0.016,-0.003 0.033,-10e-4 0.048,0.005 -0.005,0.012 -0.011,0.023 -0.016,0.034" /></g></g></g></g></svg>